<svg xmlns="http://www.w3.org/2000/svg" viewBox="0 0 600 600" stroke="#000" stroke-width="0">
    <circle cx="300" cy="340" r="250" fill="#fff"/>
    <circle cx="300" cy="340" r="200" fill="none" stroke-width="60"/>
    <circle cx="300" cy="340" r="50"/>
    <path d="M270 325 L370 210 L330 355" stroke-linejoin="round" stroke-width="15" stroke="black"/>
    <rect x="220" y="10" height="100" width="160" rx="20" fill="#fff"/>
    <rect x="240" y="30" height="60" width="120" rx="10"/>
    <path d="M265 70h70v50h-70z"/>
    <g transform="rotate(-45)">
        <rect x="-90" y="130" height="80" width="130" rx="20" fill="#fff"/>
        <rect x="-70" y="150" height="40" width="90" rx="10"/>
        <path d="M-50 170H0v60h-50z"/>
    </g>
    <g transform="rotate(45)">
        <rect x="385" y="-295" height="80" width="130" rx="20" fill="#fff"/>
        <rect x="405" y="-275" height="40" width="90" rx="10"/>
        <path d="M425-255h50v60h-50z"/>
    </g>
</svg>
