<svg xmlns="http://www.w3.org/2000/svg" viewBox="0 0 2300 500">
    <path d="M117.42 147.587v-4.465h81.063v3.09c-4.122 3.093-7.557 2.406-8.244 8.245-.343 1.03 3.78 9.274 4.122 10.305l111.634 232.542c.343 1.718 2.747 7.214 4.465 9.618 2.06 2.06 5.152 3.435 9.618 3.435v5.152h-74.193v-4.465l6.87-4.122-30.228-66.637H96.123l-24.73 54.959c-2.062 5.84-2.405 3.435-2.405 9.962l5.84 3.778v6.526H8.532v-5.495c1.718 0 6.527-1.718 8.93-4.81 1.72-2.06 2.75-5.84 4.123-8.93l99.27-229.451s4.12-10.65 4.12-10.992c1.03-4.465-1.374-5.84-7.556-8.244v-.001zm37.783 55.302l-42.25 95.147h87.248l-44.998-95.147z"/>
    <path d="M339.367 394.892V220.809s.325-7.16-.977-10.087c-1.952-5.532-4.88-5.857-8.134-5.857v-6.183h59.871v6.183c-3.253 0-6.182.325-7.809 5.857-1.627 2.928-1.3 9.76-1.3 9.76V380.25h130.48c3.254 0 6.833-.325 10.087-.325 5.857-1.627 5.206-.976 6.833-7.158h4.23v47.506h-4.23l-.976-2.603c-1.953-1.301-5.857-1.952-7.484-1.952l-7.484-.325h-180.59v-4.881c4.23 0 4.554-.326 6.832-5.857 0 0 .65-8.786.65-9.762h.001z"/>
    <path d="M758.32 217.844h5.213l2.28-1.955 5.54 2.606c-2.607 3.91-4.888 7.168-6.517 10.752l-7.493 13.358c-1.63 1.955-2.28 4.56-3.584 6.516l-8.145 14.66-2.933-1.628v-5.54c-29.974-25.737-77.867-32.905-108.492-24.108-24.11 6.516-45.939 21.177-55.713 48.87-7.493 21.83-6.19 49.849 9.123 71.026 21.503 28.345 53.757 32.58 79.17 31.603 13.358-.652 32.906-4.887 44.635-9.123 6.842-2.932 14.336-6.516 22.48-12.054 5.865-3.91 9.45-6.842 10.752-8.797 4.561-6.19 5.54-5.213 2.932-11.403l3.584-2.281 27.042 41.377-3.91 3.258-2.606-1.955c-57.016 37.794-128.693 46.264-178.866 21.83-43.332-20.526-59.622-54.736-61.577-91.226-1.63-30.3 9.448-71.025 52.128-97.415 54.41-33.884 119.57-22.806 174.957 1.629z"/>
    <g transform="translate(-299.492 -479.619) scale(.787)">
        <svg height="600" width="600" x="1329.507" y="630.401" stroke="#000" stroke-width="0">>
            <circle cx="300" cy="340" r="200" fill="none" stroke-width="60"/>
            <circle cx="300" cy="340" r="50"/>
            <path d="M270 325 L370 210 L330 355" stroke-linejoin="round" stroke-width="15" stroke="black"/>
            <rect x="240" y="30" height="60" width="120" rx="10"/>
            <path d="M265 70h70v50h-70z"/>
            <g transform="rotate(-45)">
                <rect x="-70" y="150" height="40" width="90" rx="10"/>
                <path d="M-50 170H0v60h-50z"/>
            </g>
            <g transform="rotate(45)">
                <rect x="405" y="-275" height="40" width="90" rx="10"/>
                <path d="M425-255h50v60h-50z"/>
            </g>
        </svg>
    </g>
    <path d="M1188.47 200.317v-60.915h5.355v3.347c1.673 3.012 3.68 4.685 7.028 4.685 2.343 1.004 4.686.335 8.033.335h230.608c6.025-2.343 4.35-2.008 6.025-8.033h5.02v60.916h-3.682c0-2.678-1.673-6.36-5.69-7.7-1.338-1.003-6.693-1.337-8.702-1.672-6.694-.335-14.726-.335-18.408-.335h-66.94v201.824c0 1.673-.335 9.372.335 10.71 3.347 5.356 4.35 6.025 8.702 6.025l-.335 4.35h-68.948v-4.685c4.35 0 4.686.335 7.029-5.355 0-3.347.335-6.025.335-9.372V190.945h-86.353c-.335 0-8.367 0-9.371.335-3.682 1.673-4.686 3.012-4.686 9.037h-5.355z"/>
    <g transform="translate(1014.71 50.876) scale(.4)">
        <svg height="1052" width="744" x="894.419" y="-30.803">
            <path d="M258.83 930.97c23.451 24.692 182.24 21.078 191.62 1.425 11.465-9.07 8.844-39.909 8.844-39.909l2.948-399.09c-1.56-50.4-46.46-79.43-48.03-111.18l-15.35-209.52c18.24-8.062 4.259-35.445 1.132-44.516 10.944-16.126-.968-17.608-3.574-20.127-32.832-3.023-48.197-2.52-84.156.504 0 0-13.702 11.18-.153 19.242 3.127 5.543-23.45 35.175.521 45.254l-16.24 211.51c-4.69 35.78-42.083 55.192-45.73 101.55l3.01 419.19s-.052 19.61 5.16 25.656l-.002.011z"/>
        </svg>
    </g>
    <path d="M1582.266 210.874v-4.38h58.189v4.692l-2.816.939c-3.44 3.44.313 9.385 2.816 12.827l64.133 117.629 64.758-122.322c1.252-3.13 1.878-2.503 1.878-6.57l-3.13-2.503v-4.38h61.006v5.319h-3.13c-5.004 3.128-3.753 8.76-3.753 12.514v171.75c0 3.13 1.564 5.632 1.564 8.76.626 1.877.313 2.19 2.19 4.693l2.503.626 1.877.313v4.066h-54.748l.313-4.38c3.129 0 5.63-1.25 7.508-5.943.626-1.252.313-8.134.313-9.698V270.314l-76.646 144.533h-5.944l-77.273-140.153V396.39c.313 1.25 0 7.508.626 8.76 2.19 5.005 2.19 4.066 7.82 5.63l-.937 4.067h-48.804v-4.692c2.503 0 4.38.313 6.257-4.693.626-1.251.313-5.944.313-8.134V219.946c0-1.877-.626-3.441-1.565-6.257l-5.318-2.815z"/>
    <path d="M2047.92 203.085l1.273-2.228h3.5v42.96h-3.818l-.955-2.863c-2.546-1.91-7.956-2.228-11.138-2.228h-137.475v52.508h91.014c1.59 0 5.728.637 8.274-1.91l.954-2.545h3.819v42.643l-4.773-2.546c-2.546-2.228-7.32-2.546-10.184-2.546h-88.468v56.008h139.703c2.546 0 7.956.637 11.138-1.59l1.273-2.865 3.819.637v42.96h-3.82l-1.272-2.863c-1.91-.637-6.046-1.592-8.592-1.592h-190.938v-4.455c2.864 0 6.047-1.273 6.047-5.41.636-1.59.318-6.364.318-7.955v-172.48c0-2.228-.636-6.365-.636-9.23-.32-.636-.637-4.136-1.273-5.091-2.864-1.591-1.91-1.273-5.092-2.546l.318-3.82H2040.6c4.455 0 4.455.32 7.32-.953h-.001z"/>
    <path d="M2118.089 239.089v55.827h71.052c12.053 0 41.235 3.489 52.02-13.957 4.44-7.295 4.44-17.763.317-24.741-11.102-20.3-47.896-17.13-56.143-17.13h-67.246zm159.232 160.819c1.27 1.903 4.44 6.66 6.344 8.564 3.49 2.537 3.807 3.172 8.565 3.172v4.44h-61.536v-3.171s3.172 0 3.806-.952c.952-1.586-.634-4.44-.634-4.44l-53.29-78.348h-62.17v77.396c0 3.806 2.855 3.806 7.93 5.392v4.124h-57.095v-4.441c5.075 0 6.027.317 7.93-3.49.634-1.903.317-11.736.317-13.004v-169.7c0-.952-.634-7.613-1.586-9.516 0-4.44-1.586-3.806-7.295-6.344v-4.44h123.072c19.349.317 70.734 1.903 87.546 36.794 8.564 17.763 8.564 44.725-5.393 63.756-12.688 16.812-30.768 20.935-46.31 23.156l49.8 71.052h-.001z"/>
</svg>
